<svg width="29" height="20" viewBox="0 0 29 20" fill="none" xmlns="http://www.w3.org/2000/svg">
<path d="M22.4998 12.6C21.2538 12.6 20.0357 12.2306 18.9997 11.5383C17.9637 10.8461 17.1562 9.86213 16.6794 8.71095C16.2025 7.55978 16.0778 6.29306 16.3209 5.07098C16.564 3.8489 17.164 2.72635 18.045 1.84527C18.9261 0.964204 20.0487 0.364186 21.2707 0.121099C22.4928 -0.121988 23.7595 0.00277303 24.9107 0.479605C26.0619 0.956437 27.0458 1.76392 27.7381 2.79995C28.4303 3.83598 28.7998 5.05402 28.7998 6.30005L28.8286 7.20005C28.8286 10.5418 27.5011 13.7466 25.1382 16.1096C22.7752 18.4726 19.5703 19.8 16.2286 19.8V16.2C17.411 16.2032 18.5823 15.972 19.6748 15.5197C20.7673 15.0673 21.7593 14.4029 22.5934 13.5648C22.9176 13.2413 23.2167 12.8935 23.488 12.5244C23.1658 12.5748 22.8364 12.6018 22.5016 12.6018L22.4998 12.6ZM6.29981 12.6C5.05379 12.6 3.83575 12.2306 2.79972 11.5383C1.76369 10.8461 0.956203 9.86213 0.479371 8.71095C0.00253881 7.55978 -0.122222 6.29306 0.120865 5.07098C0.363952 3.8489 0.963969 2.72635 1.84504 1.84527C2.72611 0.964204 3.84866 0.364186 5.07074 0.121099C6.29282 -0.121988 7.55954 0.00277303 8.71072 0.479605C9.86189 0.956437 10.8458 1.76392 11.5381 2.79995C12.2303 3.83598 12.5998 5.05402 12.5998 6.30005L12.6286 7.20005C12.6286 10.5418 11.3011 13.7466 8.93816 16.1096C6.5752 18.4726 3.37034 19.8 0.0286121 19.8V16.2C1.21103 16.2032 2.38234 15.972 3.47483 15.5197C4.56732 15.0673 5.5593 14.4029 6.39341 13.5648C6.7176 13.2413 7.01667 12.8935 7.28801 12.5244C6.96581 12.5748 6.63641 12.6018 6.29981 12.6018V12.6Z" fill="#C16E4B"/>
</svg>
